<svg xmlns="http://www.w3.org/2000/svg" xmlns:xlink="http://www.w3.org/1999/xlink" width="800" zoomAndPan="magnify" viewBox="0 0 600 449.999984" height="600" preserveAspectRatio="xMidYMid meet" version="1.0"><defs><g/></defs><g fill="#ffffff" fill-opacity="1"><g transform="translate(18.403517, 241.119322)"><g><path d="M 40.671875 -93.859375 C 45.660156 -93.859375 50.535156 -93.128906 55.296875 -91.671875 C 60.066406 -90.222656 63.609375 -88.789062 65.921875 -87.375 L 69.28125 -85.140625 L 60.78125 -68.375 C 60.113281 -68.820312 59.179688 -69.398438 57.984375 -70.109375 C 56.796875 -70.816406 54.5625 -71.765625 51.28125 -72.953125 C 48.007812 -74.148438 44.957031 -74.75 42.125 -74.75 C 38.625 -74.75 35.921875 -74.003906 34.015625 -72.515625 C 32.117188 -71.023438 31.171875 -69.015625 31.171875 -66.484375 C 31.171875 -65.210938 31.617188 -64.035156 32.515625 -62.953125 C 33.410156 -61.878906 34.9375 -60.726562 37.09375 -59.5 C 39.257812 -58.269531 41.160156 -57.28125 42.796875 -56.53125 C 44.429688 -55.789062 46.960938 -54.675781 50.390625 -53.1875 C 56.347656 -50.65625 61.429688 -47.207031 65.640625 -42.84375 C 69.847656 -38.488281 71.953125 -33.554688 71.953125 -28.046875 C 71.953125 -22.753906 71.003906 -18.132812 69.109375 -14.1875 C 67.210938 -10.238281 64.601562 -7.144531 61.28125 -4.90625 C 57.96875 -2.675781 54.300781 -1.023438 50.28125 0.046875 C 46.257812 1.128906 41.898438 1.671875 37.203125 1.671875 C 33.179688 1.671875 29.234375 1.257812 25.359375 0.4375 C 21.484375 -0.375 18.242188 -1.394531 15.640625 -2.625 C 13.035156 -3.851562 10.6875 -5.0625 8.59375 -6.25 C 6.507812 -7.445312 4.984375 -8.457031 4.015625 -9.28125 L 2.5625 -10.5 L 13.078125 -28.15625 C 13.960938 -27.414062 15.1875 -26.46875 16.75 -25.3125 C 18.320312 -24.15625 21.097656 -22.609375 25.078125 -20.671875 C 29.066406 -18.734375 32.585938 -17.765625 35.640625 -17.765625 C 44.503906 -17.765625 48.9375 -20.78125 48.9375 -26.8125 C 48.9375 -28.082031 48.617188 -29.253906 47.984375 -30.328125 C 47.359375 -31.410156 46.242188 -32.492188 44.640625 -33.578125 C 43.035156 -34.660156 41.617188 -35.515625 40.390625 -36.140625 C 39.160156 -36.773438 37.148438 -37.742188 34.359375 -39.046875 C 31.566406 -40.347656 29.5 -41.335938 28.15625 -42.015625 C 22.570312 -44.765625 18.25 -48.207031 15.1875 -52.34375 C 12.132812 -56.476562 10.609375 -60.929688 10.609375 -65.703125 C 10.609375 -73.972656 13.660156 -80.734375 19.765625 -85.984375 C 25.878906 -91.234375 32.847656 -93.859375 40.671875 -93.859375 Z M 40.671875 -93.859375 "/></g></g></g><g fill="#ffffff" fill-opacity="1"><g transform="translate(91.245835, 241.119322)"><g><path d="M 12.109375 -6.8125 C 5.742188 -12.476562 2.5625 -19.742188 2.5625 -28.609375 C 2.5625 -37.472656 5.875 -44.753906 12.5 -50.453125 C 19.132812 -56.148438 27.332031 -59 37.09375 -59 C 46.707031 -59 54.804688 -56.128906 61.390625 -50.390625 C 67.984375 -44.648438 71.28125 -37.382812 71.28125 -28.59375 C 71.28125 -19.8125 68.054688 -12.570312 61.609375 -6.875 C 55.171875 -1.175781 47 1.671875 37.09375 1.671875 C 26.8125 1.671875 18.484375 -1.15625 12.109375 -6.8125 Z M 27.421875 -38.328125 C 24.859375 -35.796875 23.578125 -32.554688 23.578125 -28.609375 C 23.578125 -24.660156 24.804688 -21.4375 27.265625 -18.9375 C 29.722656 -16.445312 32.960938 -15.203125 36.984375 -15.203125 C 40.859375 -15.203125 44.039062 -16.46875 46.53125 -19 C 49.03125 -21.53125 50.28125 -24.734375 50.28125 -28.609375 C 50.28125 -32.554688 48.992188 -35.796875 46.421875 -38.328125 C 43.859375 -40.859375 40.710938 -42.125 36.984375 -42.125 C 33.179688 -42.125 29.992188 -40.859375 27.421875 -38.328125 Z M 27.421875 -38.328125 "/></g></g></g><g fill="#ffffff" fill-opacity="1"><g transform="translate(162.859209, 241.119322)"><g><path d="M 6.703125 0 L 6.703125 -96.09375 L 26.484375 -96.09375 L 26.484375 0 Z M 6.703125 0 "/></g></g></g><g fill="#ffffff" fill-opacity="1"><g transform="translate(193.805861, 241.119322)"><g><path d="M 10.609375 -7.09375 C 5.242188 -12.9375 2.5625 -20.101562 2.5625 -28.59375 C 2.5625 -37.09375 5.242188 -44.285156 10.609375 -50.171875 C 15.972656 -56.054688 22.789062 -59 31.0625 -59 C 38.65625 -59 44.910156 -56.613281 49.828125 -51.84375 L 49.828125 -57.3125 L 69.609375 -57.3125 L 69.609375 0 L 50.0625 0 L 50.0625 -6.484375 L 49.828125 -6.484375 C 44.910156 -1.046875 38.65625 1.671875 31.0625 1.671875 C 22.789062 1.671875 15.972656 -1.25 10.609375 -7.09375 Z M 27.421875 -38.328125 C 24.859375 -35.796875 23.578125 -32.554688 23.578125 -28.609375 C 23.578125 -24.660156 24.804688 -21.4375 27.265625 -18.9375 C 29.722656 -16.445312 32.960938 -15.203125 36.984375 -15.203125 C 40.859375 -15.203125 44.039062 -16.46875 46.53125 -19 C 49.03125 -21.53125 50.28125 -24.734375 50.28125 -28.609375 C 50.28125 -32.554688 48.992188 -35.796875 46.421875 -38.328125 C 43.859375 -40.859375 40.710938 -42.125 36.984375 -42.125 C 33.179688 -42.125 29.992188 -40.859375 27.421875 -38.328125 Z M 27.421875 -38.328125 "/></g></g></g><g fill="#ffffff" fill-opacity="1"><g transform="translate(267.877107, 241.119322)"><g><path d="M 6.703125 0 L 6.703125 -57.3125 L 26.484375 -57.3125 L 26.484375 -49.046875 L 26.703125 -49.046875 C 26.847656 -49.347656 27.085938 -49.722656 27.421875 -50.171875 C 27.765625 -50.617188 28.492188 -51.398438 29.609375 -52.515625 C 30.722656 -53.628906 31.910156 -54.632812 33.171875 -55.53125 C 34.441406 -56.425781 36.082031 -57.226562 38.09375 -57.9375 C 40.113281 -58.644531 42.164062 -59 44.25 -59 C 46.40625 -59 48.523438 -58.695312 50.609375 -58.09375 C 52.703125 -57.5 54.234375 -56.90625 55.203125 -56.3125 L 56.765625 -55.421875 L 48.5 -38.65625 C 46.039062 -40.738281 42.613281 -41.78125 38.21875 -41.78125 C 35.832031 -41.78125 33.78125 -41.257812 32.0625 -40.21875 C 30.351562 -39.175781 29.144531 -37.910156 28.4375 -36.421875 C 27.726562 -34.929688 27.222656 -33.664062 26.921875 -32.625 C 26.628906 -31.582031 26.484375 -30.765625 26.484375 -30.171875 L 26.484375 0 Z M 6.703125 0 "/></g></g></g><g fill="#ffffff" fill-opacity="1"><g transform="translate(321.279841, 241.119322)"><g><path d="M 35.53125 0 L -3.125 -92.1875 L 20.5625 -92.1875 L 43.796875 -31.625 L 67.046875 -92.1875 L 90.734375 -92.1875 L 52.0625 0 Z M 35.53125 0 "/></g></g></g><g fill="#ffffff" fill-opacity="1"><g transform="translate(406.634989, 241.119322)"><g><path d="M 64.6875 -25.921875 L 23.125 -25.921875 C 23.125 -21.898438 24.425781 -18.921875 27.03125 -16.984375 C 29.644531 -15.046875 32.476562 -14.078125 35.53125 -14.078125 C 38.738281 -14.078125 41.269531 -14.503906 43.125 -15.359375 C 44.988281 -16.210938 47.113281 -17.910156 49.5 -20.453125 L 63.796875 -13.296875 C 57.835938 -3.316406 47.929688 1.671875 34.078125 1.671875 C 25.441406 1.671875 18.03125 -1.285156 11.84375 -7.203125 C 5.65625 -13.128906 2.5625 -20.265625 2.5625 -28.609375 C 2.5625 -36.953125 5.65625 -44.101562 11.84375 -50.0625 C 18.03125 -56.019531 25.441406 -59 34.078125 -59 C 43.160156 -59 50.550781 -56.367188 56.25 -51.109375 C 61.957031 -45.859375 64.8125 -38.359375 64.8125 -28.609375 C 64.8125 -27.265625 64.769531 -26.367188 64.6875 -25.921875 Z M 23.6875 -36.875 L 45.46875 -36.875 C 45.03125 -39.851562 43.859375 -42.140625 41.953125 -43.734375 C 40.054688 -45.335938 37.617188 -46.140625 34.640625 -46.140625 C 31.359375 -46.140625 28.75 -45.28125 26.8125 -43.5625 C 24.875 -41.851562 23.832031 -39.625 23.6875 -36.875 Z M 23.6875 -36.875 "/></g></g></g><g fill="#ffffff" fill-opacity="1"><g transform="translate(471.768502, 241.119322)"><g><path d="M 6.703125 0 L 6.703125 -57.3125 L 26.484375 -57.3125 L 26.484375 -51.28125 L 26.703125 -51.28125 C 31.847656 -56.425781 37.320312 -59 43.125 -59 C 45.957031 -59 48.769531 -58.625 51.5625 -57.875 C 54.351562 -57.132812 57.035156 -55.976562 59.609375 -54.40625 C 62.179688 -52.84375 64.265625 -50.628906 65.859375 -47.765625 C 67.460938 -44.898438 68.265625 -41.566406 68.265625 -37.765625 L 68.265625 0 L 48.5 0 L 48.5 -32.40625 C 48.5 -35.382812 47.546875 -37.988281 45.640625 -40.21875 C 43.742188 -42.457031 41.269531 -43.578125 38.21875 -43.578125 C 35.238281 -43.578125 32.535156 -42.421875 30.109375 -40.109375 C 27.691406 -37.804688 26.484375 -35.238281 26.484375 -32.40625 L 26.484375 0 Z M 6.703125 0 "/></g></g></g><g fill="#ffffff" fill-opacity="1"><g transform="translate(543.381862, 241.119322)"><g><path d="M 10.0625 -57.3125 L 10.0625 -78.65625 L 29.828125 -78.65625 L 29.828125 -57.3125 L 41.90625 -57.3125 L 41.90625 -42.234375 L 29.828125 -42.234375 L 29.828125 -24.015625 C 29.828125 -18.734375 31.316406 -16.09375 34.296875 -16.09375 C 35.046875 -16.09375 35.828125 -16.238281 36.640625 -16.53125 C 37.460938 -16.832031 38.097656 -17.132812 38.546875 -17.4375 L 39.21875 -17.875 L 44.140625 -1.90625 C 39.890625 0.476562 35.046875 1.671875 29.609375 1.671875 C 25.878906 1.671875 22.675781 1.019531 20 -0.28125 C 17.320312 -1.582031 15.289062 -3.332031 13.90625 -5.53125 C 12.53125 -7.726562 11.546875 -10.035156 10.953125 -12.453125 C 10.359375 -14.878906 10.0625 -17.46875 10.0625 -20.21875 L 10.0625 -42.234375 L 1.78125 -42.234375 L 1.78125 -57.3125 Z M 10.0625 -57.3125 "/></g></g></g></svg>